# xmcd
#
# Track frame offsets:
#	150
#	12590
#	26325
#	37640
#	55700
#	77625
#	93515
#	107015
#	123525
#	135290
#	153715
#	160865
#
# Disc length: 2402 seconds
#
# Revision: 1
# Processed by: cddbd v1.5.2PL0 Copyright (c) Steve Scherf et al.
# Submitted via: audiograbber 1.83.01
#
DISCID=8709600c
DTITLE=Dottie Cormier - Oh Happy Day
DYEAR=2001
DGENRE=Bluegrass
TTITLE0=Lonesome Road
TTITLE1=Swinging Doors
TTITLE2=Gospel Train
TTITLE3=Stand Tall
TTITLE4=He's Alright
TTITLE5=Hey
TTITLE6=Don't Stay
TTITLE7=Hands Down
TTITLE8=No Not Yet
TTITLE9=Deepest Waters
TTITLE10=Lost On The River
TTITLE11=Run Willie Run
EXTD=
EXTT0=
EXTT1=
EXTT2=
EXTT3=
EXTT4=
EXTT5=
EXTT6=
EXTT7=
EXTT8=
EXTT9=
EXTT10=
EXTT11=
PLAYORDER=
